<?xml version="1.0" standalone="no"?>
<!DOCTYPE svg PUBLIC "-//W3C//DTD SVG 20010904//EN"
 "http://www.w3.org/TR/2001/REC-SVG-20010904/DTD/svg10.dtd">
<svg version="1.0" xmlns="http://www.w3.org/2000/svg"
 width="208.000000pt" height="301.000000pt" viewBox="0 0 208.000000 301.000000"
 preserveAspectRatio="xMidYMid meet">

<g transform="translate(0.000000,301.000000) scale(0.100000,-0.100000)"
fill="#000000" stroke="none">
<path d="M22 1508 l3 -1493 1013 -3 1012 -2 0 1495 0 1495 -1015 0 -1015 0 2
-1492z m1998 170 c0 -1065 -2 -1290 -13 -1278 -7 8 -73 77 -147 153 -103 106
-131 140 -122 149 7 7 12 23 12 36 0 22 -3 24 -33 18 -28 -5 -33 -3 -33 15 0
17 5 20 31 16 16 -3 44 1 62 8 30 13 58 47 47 58 -10 10 -77 -5 -133 -29 -70
-31 -89 -30 -29 1 l47 25 -20 67 c-10 38 -31 128 -45 202 -21 105 -24 138 -15
155 15 28 -32 170 -84 257 -32 51 -35 62 -23 76 11 15 11 16 -5 10 -14 -5 -9
5 15 35 26 33 34 38 36 24 2 -9 -5 -27 -15 -38 -17 -19 -16 -19 20 2 48 28 53
37 32 60 -17 19 -16 22 25 76 24 30 64 73 88 94 39 33 53 39 113 44 l69 7 0
52 c0 29 3 103 7 165 l6 112 -100 0 -101 0 -7 -76 c-8 -84 -30 -129 -143 -286
-56 -79 -65 -87 -78 -67 -4 7 -20 -2 -43 -23 -59 -56 -68 -61 -74 -43 -5 10
10 26 48 50 30 19 55 40 55 47 0 7 -12 31 -25 53 -30 48 -31 55 -6 55 31 0 51
11 51 29 0 10 -44 42 -115 85 l-115 69 25 29 c14 16 25 34 25 38 0 48 -183 14
-285 -52 -39 -26 -65 -79 -65 -133 0 -19 16 -76 36 -125 28 -70 50 -105 95
-155 l58 -64 -21 -48 c-19 -42 -20 -59 -14 -158 3 -60 9 -121 12 -135 5 -19
-16 -3 -84 64 l-90 89 -7 -49 c-4 -27 -9 -56 -11 -64 -3 -9 -160 141 -444 425
l-440 440 0 362 0 363 985 0 985 0 0 -1292z m-219 533 c-16 -4 -25 -15 -26
-30 -2 -26 21 -39 38 -22 9 9 7 11 -8 6 -16 -5 -17 -5 -5 3 22 16 45 -5 28
-26 -11 -13 -10 -15 5 -9 13 5 17 1 17 -14 0 -11 -4 -18 -9 -15 -5 4 -7 -2 -4
-13 3 -13 -2 -20 -18 -24 -13 -4 -26 -1 -30 5 -4 6 -12 7 -18 4 -7 -5 -10 -2
-9 6 2 7 10 16 18 20 11 5 9 7 -7 7 -14 1 -23 -5 -23 -14 0 -8 -4 -15 -10 -15
-13 0 -13 81 0 114 8 22 15 26 47 25 31 -1 34 -2 14 -8z m87 -31 l3 -25 -18
21 c-10 12 -25 24 -33 27 -8 4 -1 5 15 4 24 -2 31 -7 33 -27z m-8 -108 c0 -40
-4 -59 -12 -59 -14 0 -18 60 -5 73 4 4 7 16 7 26 0 10 2 18 5 18 3 0 5 -26 5
-58z m-690 33 c-29 -15 -55 -56 -48 -76 3 -8 12 -1 23 19 11 18 28 35 40 38
11 4 23 12 27 18 9 13 220 -91 226 -111 2 -9 -8 -13 -33 -13 -36 0 -37 -1 -32
-29 8 -36 -3 -45 -73 -64 -50 -14 -52 -15 -20 -16 19 -1 53 4 74 10 34 9 42 9
53 -7 18 -25 3 -39 -68 -65 -66 -24 -83 -39 -46 -39 30 0 44 -36 19 -48 -10
-5 -48 -8 -87 -7 l-69 1 -7 33 c-4 18 -18 45 -32 59 -27 28 -57 90 -57 117 0
16 46 43 56 32 4 -3 -1 -14 -11 -23 -20 -20 -14 -67 12 -96 25 -28 37 -21 14
8 -24 30 -26 56 -9 83 11 18 14 18 40 5 28 -14 48 -12 48 6 0 5 -19 18 -42 28
-24 11 -54 31 -67 45 l-24 26 29 35 c28 34 44 43 74 44 8 1 4 -5 -10 -13z
m511 -105 c3 -38 0 -45 -14 -42 -9 2 -17 -2 -17 -9 0 -7 15 -9 51 -4 41 6 51
4 47 -6 -3 -8 -16 -15 -31 -17 -14 -2 -33 -15 -43 -30 -29 -44 -116 -142 -127
-142 -13 0 -47 30 -47 41 0 4 21 32 48 62 26 30 65 87 86 126 22 39 40 70 42
68 1 -1 4 -22 5 -47z m133 35 c7 -19 -3 -47 -15 -39 -12 7 -12 54 0 54 5 0 11
-7 15 -15z m-84 -21 c0 -8 -4 -12 -10 -9 -5 3 -10 10 -10 16 0 5 5 9 10 9 6 0
10 -7 10 -16z m-1195 -471 c290 -279 432 -409 437 -400 4 6 8 29 8 49 0 20 3
39 8 42 4 2 120 -104 257 -236 138 -132 364 -348 502 -481 l253 -242 0 -118 0
-117 -982 2 -983 3 -3 989 -2 988 37 -33 c21 -18 231 -219 468 -446z m1241
421 c17 -14 17 -15 1 -10 -10 3 -23 6 -28 6 -5 0 -9 5 -9 10 0 14 13 12 36 -6z
m-332 -261 c-40 -39 -38 -32 5 26 14 18 27 29 29 23 2 -6 -14 -28 -34 -49z
m67 5 c-7 -13 -21 -34 -32 -47 -18 -22 -22 -23 -35 -9 -13 13 -11 18 20 42 20
15 36 34 36 44 0 12 3 13 12 4 9 -9 9 -17 -1 -34z m-226 -38 c3 -5 2 -10 -4
-10 -5 0 -13 5 -16 10 -3 6 -2 10 4 10 5 0 13 -4 16 -10z m-14 -36 c9 -11 13
-38 11 -83 -4 -85 -9 -101 -32 -101 -23 0 -29 17 -18 55 4 16 8 40 8 52 0 43
-15 23 -30 -39 -8 -35 -19 -61 -25 -59 -5 1 -9 6 -9 10 1 3 5 39 9 80 6 60 5
73 -6 69 -20 -6 -38 -111 -30 -166 l6 -47 58 -3 c68 -4 70 -10 32 -104 -14
-34 -25 -71 -25 -82 0 -17 -7 -13 -40 24 -40 44 -41 46 -36 108 4 47 2 64 -8
68 -14 5 -14 72 0 161 8 56 103 96 135 57z m160 -57 c31 -25 133 -251 125
-273 -9 -23 -86 -54 -136 -54 -35 0 -56 -8 -94 -35 -27 -19 -53 -35 -57 -35
-5 0 -11 15 -14 34 -5 26 2 53 39 133 36 79 46 111 46 154 0 46 4 56 28 76 34
28 31 28 63 0z m158 -522 c-1 -99 -4 -191 -8 -205 -4 -14 -7 73 -7 192 0 120
3 212 8 205 4 -6 7 -93 7 -192z"/>
<path d="M648 2838 c-3 -30 -6 -33 -42 -36 l-39 -3 6 -51 c4 -28 8 -53 10 -55
3 -2 23 -1 46 3 l41 7 0 78 c0 78 -16 119 -22 57z m-8 -88 c0 -23 -4 -30 -20
-30 -26 0 -28 46 -2 53 9 3 18 5 20 6 1 0 2 -12 2 -29z"/>
<path d="M216 2788 c3 -40 10 -77 14 -81 11 -12 76 -4 70 8 -3 6 -13 9 -23 8
-20 -3 -37 32 -37 78 0 27 3 29 36 29 54 0 37 24 -20 28 l-47 3 7 -73z"/>
<path d="M811 2778 c-1 -53 3 -88 9 -88 12 0 12 113 0 150 -5 17 -8 -3 -9 -62z"/>
<path d="M930 2828 c0 -57 12 -138 21 -138 4 0 9 21 11 48 l3 47 23 -50 c22
-47 24 -49 38 -31 8 11 14 29 14 40 0 47 17 48 24 2 4 -25 11 -46 17 -46 11 0
11 34 3 108 -6 45 -10 52 -29 52 -18 0 -23 -8 -31 -47 l-10 -48 -22 48 c-15
34 -27 47 -42 47 -16 0 -20 -6 -20 -32z"/>
<path d="M1320 2830 c0 -28 -2 -30 -41 -30 l-41 0 7 -47 c8 -60 14 -66 59 -58
l36 7 0 79 c0 46 -4 79 -10 79 -5 0 -10 -13 -10 -30z m-2 -83 c3 -23 0 -27
-22 -27 -22 0 -26 5 -26 28 0 24 4 28 23 27 16 -1 23 -9 25 -28z"/>
<path d="M467 2803 c-3 -4 -1 -28 3 -53 5 -25 9 -48 10 -52 0 -5 5 -8 10 -8 6
0 10 18 10 40 0 34 4 41 25 46 32 8 32 24 1 24 -13 0 -31 3 -39 6 -8 3 -17 2
-20 -3z"/>
<path d="M1487 2803 c-3 -4 -1 -28 3 -53 5 -25 9 -48 10 -52 0 -5 5 -8 11 -8
8 0 10 14 6 39 -5 37 -3 40 24 46 35 8 38 25 5 25 -13 0 -31 3 -39 6 -8 3 -17
2 -20 -3z"/>
<path d="M1597 2804 c-8 -9 3 -96 14 -108 5 -6 9 8 9 32 0 38 2 42 25 42 22 0
25 -4 25 -34 0 -45 16 -55 24 -15 13 67 9 79 -28 79 -19 0 -41 2 -48 5 -8 3
-17 3 -21 -1z"/>
<path d="M339 2795 c-3 -2 -3 -26 1 -52 l5 -48 40 0 40 0 3 53 3 52 -44 0
c-24 0 -46 -2 -48 -5z m69 -53 c3 -30 1 -33 -20 -30 -18 2 -24 10 -26 36 -3
30 -1 33 20 30 18 -2 24 -10 26 -36z"/>
<path d="M690 2758 c0 -62 11 -74 52 -61 32 11 32 11 6 12 -39 1 -35 19 5 23
28 3 32 7 35 36 l3 32 -50 0 -51 0 0 -42z m70 7 c0 -8 -9 -15 -20 -15 -11 0
-20 7 -20 15 0 8 9 15 20 15 11 0 20 -7 20 -15z"/>
<path d="M1122 2748 l3 -53 41 -3 42 -3 3 51 c2 29 2 54 0 56 -2 2 -24 4 -48
4 l-44 0 3 -52z m60 27 c22 -9 11 -65 -12 -65 -19 0 -30 19 -30 51 0 19 16 24
42 14z"/>
<path d="M1364 2748 c4 -29 9 -55 11 -57 3 -2 19 1 37 6 33 11 33 11 6 12 -41
1 -34 21 7 21 33 0 35 2 35 35 l0 35 -51 0 -52 0 7 -52z m66 17 c0 -8 -9 -15
-20 -15 -11 0 -20 7 -20 15 0 8 9 15 20 15 11 0 20 -7 20 -15z"/>
<path d="M1727 2758 c7 -67 9 -70 50 -66 l38 3 3 53 3 52 -50 0 -49 0 5 -42z
m68 -13 c0 -23 -4 -30 -20 -30 -15 0 -21 8 -23 33 -3 30 -1 33 20 30 18 -2 23
-9 23 -33z"/>
<path d="M197 2623 c-12 -11 -8 -23 8 -23 12 0 15 -13 15 -55 0 -42 3 -55 15
-55 12 0 15 13 15 60 0 33 4 60 10 60 6 0 10 5 10 10 0 11 -63 14 -73 3z"/>
<path d="M1208 2603 c-2 -24 -8 -29 -36 -31 -25 -3 -32 -7 -28 -19 3 -8 6 -26
6 -39 0 -21 4 -24 40 -24 l40 0 0 64 c0 65 -16 100 -22 49z m2 -73 c0 -13 -7
-20 -20 -20 -13 0 -20 7 -20 20 0 13 7 20 20 20 13 0 20 -7 20 -20z"/>
<path d="M690 2555 c0 -37 4 -65 10 -65 6 0 10 28 10 65 0 37 -4 65 -10 65 -6
0 -10 -28 -10 -65z"/>
<path d="M280 2536 c0 -51 4 -55 45 -45 l30 7 -27 1 c-38 1 -36 21 2 21 27 0
30 3 30 30 0 28 -2 30 -40 30 l-40 0 0 -44z m58 12 c-6 -18 -28 -21 -28 -4 0
9 7 16 16 16 9 0 14 -5 12 -12z"/>
<path d="M378 2533 c2 -27 6 -50 8 -52 2 -2 18 1 36 6 33 11 33 11 6 12 -24 1
-28 5 -28 31 0 26 4 30 28 30 21 0 24 2 12 10 -8 5 -27 10 -41 10 -26 0 -26
-2 -21 -47z"/>
<path d="M476 2535 c8 -54 24 -69 24 -22 0 30 4 37 20 37 16 0 20 -7 20 -36 0
-21 4 -33 10 -29 6 3 10 25 10 48 l0 42 -46 0 -45 1 7 -41z"/>
<path d="M839 2538 c5 -38 9 -43 34 -46 31 -4 37 -22 8 -22 -11 0 -23 -4 -26
-10 -4 -6 8 -10 29 -10 l36 0 0 65 0 65 -43 0 -43 0 5 -42z m59 -6 c3 -17 -2
-22 -17 -22 -16 0 -21 6 -21 26 0 33 33 30 38 -4z"/>
<path d="M1005 2570 c-3 -5 3 -10 15 -10 12 0 18 -4 15 -10 -3 -5 -17 -10 -31
-10 -19 0 -24 -5 -24 -25 0 -23 4 -25 46 -25 38 0 45 3 41 18 -3 9 -8 29 -11
45 -6 27 -38 38 -51 17z m30 -49 c7 -12 -12 -24 -25 -16 -11 7 -4 25 10 25 5
0 11 -4 15 -9z"/>
<path d="M1425 2570 c-3 -5 3 -10 14 -10 12 0 21 -4 21 -10 0 -5 -13 -10 -30
-10 -25 0 -30 -4 -30 -25 0 -23 4 -25 46 -25 38 0 45 3 41 18 -3 9 -8 29 -11
45 -6 27 -38 38 -51 17z m30 -49 c7 -12 -12 -24 -25 -16 -11 7 -4 25 10 25 5
0 11 -4 15 -9z"/>
<path d="M1508 2535 c4 -42 6 -45 33 -45 16 0 29 -4 29 -10 0 -5 -9 -10 -19
-10 -11 0 -23 -5 -26 -11 -5 -7 5 -9 26 -7 l34 3 0 60 0 60 -40 3 -40 3 3 -46z
m60 -3 c3 -17 -2 -22 -17 -22 -16 0 -21 6 -21 26 0 33 33 30 38 -4z"/>
<path d="M1726 2537 c9 -55 24 -72 24 -25 0 30 4 37 26 42 34 9 23 20 -22 23
l-34 2 6 -42z"/>
<path d="M1835 2570 c-3 -5 3 -10 15 -10 12 0 18 -4 15 -10 -3 -5 -17 -10 -31
-10 -19 0 -24 -5 -24 -25 0 -23 4 -25 44 -25 l43 0 -10 45 c-8 33 -15 45 -28
45 -10 0 -21 -4 -24 -10z m28 -55 c1 -5 -6 -11 -15 -13 -11 -2 -18 3 -18 13 0
17 30 18 33 0z"/>
<path d="M585 2533 c8 -42 20 -54 50 -51 16 2 21 12 23 46 l3 42 -42 0 -41 0
7 -37z m57 -8 c-5 -28 -27 -33 -36 -9 -10 27 -7 34 18 34 19 0 22 -4 18 -25z"/>
<path d="M740 2531 c0 -40 11 -51 50 -51 18 0 30 26 30 68 0 19 -5 22 -40 22
-40 0 -40 0 -40 -39z m60 -6 c0 -18 -5 -25 -19 -25 -12 0 -20 9 -23 25 -4 21
-1 25 18 25 19 0 24 -5 24 -25z"/>
<path d="M957 2563 c-11 -10 -8 -83 3 -83 6 0 10 20 10 45 0 46 -2 50 -13 38z"/>
<path d="M1252 2528 c3 -40 5 -43 34 -46 33 -3 44 13 44 66 0 19 -5 22 -41 22
l-40 0 3 -42z m58 -5 c0 -35 -34 -27 -38 9 -3 22 0 26 17 21 14 -4 21 -14 21
-30z"/>
<path d="M1616 2533 c9 -50 11 -53 40 -53 26 0 29 4 38 58 l6 32 -46 0 -45 0
7 -37z m64 8 c0 -21 -13 -41 -26 -41 -8 0 -14 4 -14 9 0 5 -3 16 -6 25 -5 12
0 16 20 16 14 0 26 -4 26 -9z"/>
<path d="M1483 2320 c-44 -26 -57 -55 -59 -130 0 -36 -4 -72 -8 -80 -5 -13 8
-15 81 -17 100 -2 133 10 163 60 68 110 -65 236 -177 167z m136 -15 c42 -36
56 -84 38 -127 -21 -48 -52 -72 -95 -72 -57 1 -132 8 -132 14 0 3 9 19 20 37
14 24 15 31 5 26 -19 -7 -20 21 -1 37 8 6 12 18 9 26 -3 8 0 14 6 14 6 0 11
-9 11 -20 0 -29 74 -100 104 -100 47 0 40 35 -10 49 -20 5 -30 15 -32 32 -4
28 -31 61 -43 53 -17 -10 -9 10 13 33 28 30 69 29 107 -2z"/>
<path d="M1234 2070 c-21 -8 -54 -46 -54 -62 0 -12 66 -10 94 3 19 9 25 19 23
40 -2 31 -21 36 -63 19z m16 -45 c11 -13 8 -15 -14 -15 -25 0 -33 10 -19 23
10 11 19 8 33 -8z"/>
<path d="M1150 1897 c0 -13 10 -32 22 -43 21 -19 21 -19 13 1 -4 11 -10 30
-12 43 -7 29 -23 28 -23 -1z"/>
<path d="M70 1340 c0 -532 2 -631 14 -627 7 3 33 8 58 12 40 6 45 4 58 -19 12
-23 11 -42 -3 -139 -11 -70 -22 -116 -32 -123 -12 -9 -12 -18 0 -64 18 -67 23
-72 65 -60 31 9 37 7 67 -22 33 -32 56 -73 67 -120 6 -27 5 -28 -34 -28 l-40
0 0 -40 0 -40 150 0 150 0 0 25 c0 16 -6 25 -15 25 -9 0 -15 9 -15 21 0 20 -3
21 -60 15 l-60 -7 0 34 c0 36 -31 72 -85 100 -16 8 -43 29 -59 46 l-30 31 13
171 c12 169 12 172 -8 186 -41 28 -22 223 32 333 27 54 82 85 168 95 75 8 98
-10 102 -80 2 -27 13 -69 25 -92 26 -50 28 -73 6 -73 -13 0 -15 -7 -11 -37 8
-51 -1 -63 -59 -71 -41 -6 -50 -11 -52 -30 -2 -15 7 -34 27 -54 17 -17 33 -40
37 -50 7 -23 72 -25 116 -2 30 16 32 15 49 -7 17 -22 19 -23 56 -10 l38 14
107 -113 c60 -62 108 -115 108 -119 0 -4 -57 -24 -127 -44 -117 -34 -129 -36
-140 -21 -7 10 -19 14 -28 10 -9 -3 -28 3 -43 14 -15 10 -40 22 -57 26 l-30 6
37 -31 c21 -18 42 -49 51 -74 14 -43 14 -44 -13 -62 -24 -16 -26 -22 -20 -49
5 -17 11 -43 14 -57 5 -21 17 -30 64 -48 64 -23 97 -26 107 -11 3 5 26 10 49
10 l44 0 7 86 c4 47 5 87 3 88 -1 2 -30 0 -63 -5 -122 -15 -130 -14 -148 31
-17 45 -17 46 23 25 25 -13 53 -13 247 2 120 9 222 19 227 24 8 7 -2 26 -53
109 -12 19 -5 16 34 -16 86 -72 89 -76 69 -117 -15 -31 -21 -35 -68 -41 -28
-3 -81 -6 -117 -6 l-66 0 -7 -53 c-3 -28 -6 -67 -6 -84 l0 -33 55 0 c42 0 55
-3 55 -15 0 -13 55 -15 435 -15 l435 0 0 65 c0 60 -9 80 -25 55 -3 -5 -1 -10
6 -10 8 0 8 -4 -1 -15 -9 -10 -9 -15 -1 -15 6 0 11 -4 11 -10 0 -5 -7 -10 -15
-10 -11 0 -15 11 -15 40 0 36 3 40 25 40 45 0 28 34 -62 121 -49 46 -239 231
-423 409 -387 376 -465 450 -472 450 -3 0 -8 -22 -12 -50 -4 -28 -10 -50 -13
-50 -7 0 -24 16 -543 520 -190 184 -353 341 -362 349 -17 13 -18 -18 -18 -619z
m229 246 c9 -11 5 -15 -24 -20 -66 -13 -85 -99 -27 -131 26 -15 26 -16 2 -9
-34 8 -50 31 -50 70 0 25 8 39 37 63 34 28 35 31 15 31 -37 0 -101 -38 -108
-64 -3 -12 -4 -40 -2 -62 2 -32 10 -43 45 -68 40 -28 45 -29 82 -17 22 6 49
23 60 38 22 28 28 24 11 -8 -14 -26 -62 -49 -102 -49 -112 0 -156 140 -67 215
35 28 108 35 128 11z m58 -128 c-3 -7 -5 -2 -5 12 0 14 2 19 5 13 2 -7 2 -19
0 -25z m133 -53 c7 -9 19 -14 27 -11 7 3 13 1 13 -4 0 -17 -40 -11 -47 8 -6
14 -8 13 -14 -8 l-7 -25 -1 28 c-1 30 10 35 29 12z m-17 -75 c3 -11 1 -23 -4
-26 -5 -3 -9 4 -9 15 0 10 -6 22 -12 24 -8 4 -7 6 3 6 9 1 19 -8 22 -19z m37
-5 c14 -16 10 -18 -14 -9 -9 3 -16 10 -16 15 0 14 16 11 30 -6z m544 -445 c80
-39 146 -72 146 -73 0 -2 -20 -63 -45 -137 -29 -85 -43 -144 -40 -159 11 -43
-43 -56 -82 -19 -22 21 -22 22 -5 41 16 19 16 20 -6 14 -17 -4 -37 4 -72 29
-26 19 -52 34 -57 34 -5 0 -28 19 -51 43 l-43 44 41 114 c22 63 42 120 45 127
2 6 8 12 13 12 5 0 75 -32 156 -70z m20 -692 c3 -13 6 -32 6 -43 0 -15 -2 -17
-9 -6 -5 7 -14 10 -20 7 -6 -4 -11 -1 -11 6 0 24 12 58 20 58 4 0 10 -10 14
-22z m37 -16 c1 -24 3 -23 9 8 l7 35 2 -37 c1 -32 -2 -38 -19 -38 -16 0 -20 7
-20 36 0 41 19 37 21 -4z m71 3 c-2 -19 -8 -35 -12 -35 -4 0 -10 16 -12 35 -3
27 0 35 12 35 12 0 15 -8 12 -35z m58 2 c0 -38 -6 -48 -26 -40 -14 5 -20 54
-7 66 17 18 33 5 33 -26z m56 18 c9 -8 11 -15 5 -15 -6 0 -11 -9 -11 -21 0
-12 -4 -18 -11 -13 -6 3 -15 0 -20 -7 -6 -9 -9 0 -9 29 0 46 17 56 46 27z m78
3 c5 -10 7 -10 12 0 3 6 10 10 15 6 12 -7 12 -64 -1 -64 -5 0 -10 7 -10 15 0
8 -4 15 -10 15 -5 0 -10 -7 -10 -15 0 -8 -4 -15 -10 -15 -5 0 -10 16 -10 35 0
35 13 47 24 23z m53 -40 c-2 -13 -4 -5 -4 17 -1 22 1 32 4 23 2 -10 2 -28 0
-40z m33 16 c0 -13 5 -24 12 -24 9 0 9 -3 1 -11 -18 -18 -33 -1 -33 37 0 21 4
33 10 29 6 -3 10 -17 10 -31z m73 29 c-7 -2 -14 -19 -14 -36 -2 -28 -2 -29 -6
-7 -3 14 -10 31 -15 38 -8 9 -4 12 18 11 16 0 23 -3 17 -6z m77 -7 c0 -5 7 -3
15 4 13 11 15 7 15 -24 0 -20 -4 -36 -10 -36 -5 0 -10 6 -10 13 0 9 -2 9 -8 1
-4 -7 -18 -14 -32 -15 -22 -4 -25 0 -28 33 -3 36 -2 37 27 35 17 -1 31 -6 31
-11z m108 -23 c-2 -26 -8 -38 -18 -38 -10 0 -16 12 -18 38 -3 32 0 37 18 37
18 0 21 -5 18 -37z m34 5 l1 -33 4 33 c6 43 23 41 23 -3 0 -31 -3 -35 -25 -35
-22 0 -25 4 -25 35 0 44 19 46 22 3z m68 13 c0 -11 3 -26 6 -35 4 -12 0 -16
-15 -16 -16 0 -21 6 -21 28 0 16 3 32 7 35 12 13 23 7 23 -12z m56 -19 c1 -23
-3 -31 -12 -28 -7 3 -15 0 -18 -7 -2 -7 -5 7 -5 31 -1 36 2 43 17 40 12 -2 17
-13 18 -36z m57 31 c-7 -2 -14 -19 -14 -36 l-2 -32 -4 30 c-3 16 -10 33 -16
37 -7 4 2 7 18 7 17 0 24 -3 18 -6z"/>
<path d="M880 839 c-48 -102 -49 -122 -5 -161 36 -32 133 -98 145 -98 7 0 133
210 128 215 -10 10 -187 95 -210 100 -26 7 -30 3 -58 -56z m120 -87 c0 -4 -9
-15 -19 -24 -18 -15 -20 -15 -25 -1 -4 9 -4 18 -1 21 3 3 5 0 5 -6 0 -6 7 -9
15 -6 8 4 12 10 9 15 -3 5 0 9 5 9 6 0 11 -3 11 -8z"/>
<path d="M1213 184 c-3 -8 -1 -20 6 -27 8 -8 11 -4 11 16 0 30 -7 35 -17 11z"/>
<path d="M1266 191 c-4 -7 -5 -15 -2 -18 9 -9 19 4 14 18 -4 11 -6 11 -12 0z"/>
<path d="M1560 175 c0 -15 4 -24 10 -20 6 3 10 12 10 20 0 8 -4 17 -10 20 -6
4 -10 -5 -10 -20z"/>
<path d="M1702 175 c0 -16 2 -22 5 -12 2 9 2 23 0 30 -3 6 -5 -1 -5 -18z"/>
<path d="M1850 186 c0 -9 5 -16 10 -16 6 0 10 4 10 9 0 6 -4 13 -10 16 -5 3
-10 -1 -10 -9z"/>
<path d="M365 1067 c-8 -13 -17 -39 -20 -58 -3 -18 -2 -27 1 -19 4 8 15 34 25
58 20 46 18 54 -6 19z"/>
<path d="M401 1039 c-25 -40 -35 -100 -36 -194 0 -64 -2 -72 -27 -93 l-28 -24
0 -144 0 -144 28 -11 c15 -6 68 -13 117 -16 99 -6 105 3 19 31 -36 12 -55 24
-63 42 -17 38 -14 40 17 12 40 -38 68 -50 151 -64 41 -7 86 -22 101 -32 21
-16 28 -17 38 -6 6 7 9 20 6 28 -4 11 0 16 12 16 15 0 16 2 5 9 -9 6 -10 11
-2 15 18 11 13 26 -9 26 -12 0 -20 7 -20 18 -1 16 -2 16 -14 -1 -13 -17 -21
-17 -91 -8 -42 6 -84 15 -94 20 -11 7 -24 38 -36 91 l-19 82 -39 -5 c-21 -3
-41 -8 -45 -11 -3 -4 2 -36 12 -72 9 -37 15 -69 12 -72 -4 -3 -6 0 -6 8 0 10
-3 10 -14 0 -12 -9 -17 -5 -25 27 -24 91 -24 110 -2 132 24 24 102 30 118 9 6
-7 13 -33 17 -58 9 -60 25 -110 37 -110 5 0 9 29 9 64 0 59 -3 66 -32 95 -18
18 -44 34 -58 37 -59 13 -57 11 -62 86 -5 61 -1 84 23 156 16 47 27 87 24 90
-2 2 -13 -11 -24 -29z"/>
<path d="M450 1025 c-17 -21 -60 -210 -53 -235 8 -29 63 -28 63 0 0 18 7 20
60 20 52 0 60 3 60 19 0 12 -11 22 -32 29 -33 10 -33 10 -5 11 20 1 27 6 27
20 0 12 8 21 20 23 18 3 17 8 -18 65 -34 58 -40 63 -73 63 -21 0 -42 -7 -49
-15z m92 -30 c3 -3 3 -17 0 -30 -4 -21 -9 -24 -37 -22 -18 1 -31 5 -29 9 2 3
-2 8 -8 11 -22 7 11 37 42 37 14 0 29 -2 32 -5z"/>
<path d="M495 979 c-10 -15 3 -25 16 -12 7 7 7 13 1 17 -6 3 -14 1 -17 -5z"/>
<path d="M290 953 c-6 -26 -13 -84 -15 -128 -4 -71 -3 -75 5 -30 14 77 29 199
26 203 -2 1 -9 -19 -16 -45z"/>
<path d="M660 635 c-8 -10 -30 -15 -61 -15 -48 0 -49 -1 -49 -30 0 -25 4 -30
35 -36 20 -3 43 -13 51 -22 13 -12 17 -13 24 -2 4 7 15 10 24 7 10 -4 16 -1
16 7 0 8 -6 17 -12 19 -8 3 -6 6 5 6 9 1 17 6 17 11 0 6 -8 10 -17 10 -17 1
-17 1 0 11 9 6 15 15 12 20 -4 5 -11 7 -16 4 -5 -3 -6 1 -3 9 8 20 -10 21 -26
1z"/>
<path d="M351 615 c1 -19 18 -51 18 -35 0 8 -4 22 -9 30 -5 8 -9 11 -9 5z"/>
<path d="M805 580 c3 -5 10 -10 16 -10 5 0 9 5 9 10 0 6 -7 10 -16 10 -8 0
-12 -4 -9 -10z"/>
<path d="M745 570 c3 -5 10 -10 16 -10 5 0 9 5 9 10 0 6 -7 10 -16 10 -8 0
-12 -4 -9 -10z"/>
<path d="M866 541 c-4 -5 -2 -12 3 -15 5 -4 12 -2 15 3 4 5 2 12 -3 15 -5 4
-12 2 -15 -3z"/>
<path d="M560 530 c0 -12 48 -25 58 -16 8 9 -18 26 -40 26 -10 0 -18 -4 -18
-10z"/>
<path d="M800 520 c0 -5 5 -10 10 -10 6 0 10 5 10 10 0 6 -4 10 -10 10 -5 0
-10 -4 -10 -10z"/>
<path d="M910 480 c0 -5 4 -10 9 -10 6 0 13 5 16 10 3 6 -1 10 -9 10 -9 0 -16
-4 -16 -10z"/>
<path d="M840 470 c0 -5 7 -10 15 -10 8 0 15 5 15 10 0 6 -7 10 -15 10 -8 0
-15 -4 -15 -10z"/>
<path d="M780 460 c0 -5 7 -10 15 -10 8 0 15 5 15 10 0 6 -7 10 -15 10 -8 0
-15 -4 -15 -10z"/>
<path d="M940 440 c0 -5 7 -10 15 -10 8 0 15 5 15 10 0 6 -7 10 -15 10 -8 0
-15 -4 -15 -10z"/>
<path d="M875 420 c3 -5 12 -7 20 -3 21 7 19 13 -6 13 -11 0 -18 -4 -14 -10z"/>
<path d="M88 413 c-16 -4 -18 -21 -18 -174 l0 -169 76 0 75 0 -3 38 c-3 36 -4
37 -48 40 -39 3 -48 8 -67 37 -28 42 -28 46 -3 87 14 23 20 51 20 91 0 31 -3
56 -7 56 -5 -1 -16 -3 -25 -6z"/>
<path d="M820 410 c0 -5 7 -7 15 -4 8 4 15 8 15 10 0 2 -7 4 -15 4 -8 0 -15
-4 -15 -10z"/>
<path d="M762 398 c5 -15 28 -18 29 -3 0 6 -7 12 -17 13 -10 3 -15 -1 -12 -10z"/>
<path d="M596 357 c11 -12 20 -24 21 -26 2 -2 3 5 3 16 0 13 -8 23 -21 26 -20
5 -20 5 -3 -16z"/>
<path d="M517 350 c21 -9 27 -24 36 -105 2 -16 5 0 6 36 1 61 -1 67 -21 73
-33 9 -46 6 -21 -4z"/>
<path d="M460 332 c17 -5 27 -18 32 -37 6 -29 6 -28 5 5 -2 31 -5 35 -32 37
-28 2 -28 1 -5 -5z"/>
<path d="M595 200 c-26 -28 -11 -71 29 -81 l28 -8 -7 47 c-10 70 -19 77 -50
42z"/>
</g>
</svg>
